<svg id="Layer_1" data-name="Layer 1" xmlns="http://www.w3.org/2000/svg" viewBox="0 0 266.17 294.77"><defs><style>.cls-1{fill:#f72585;}.cls-2{fill:#b5179e;}.cls-3{fill:#4895ef;}.cls-4{fill:#4cc9f0;}.cls-5{fill:#0466c8;}.cls-6{fill:#0353a4;}</style></defs><polygon class="cls-1" points="0 217.78 22.2 230.6 22.28 76.91 0.08 64.09 0 217.78"/><polygon class="cls-2" points="44.48 64.09 22.28 76.91 22.2 230.6 44.39 217.78 44.48 64.09"/><polygon class="cls-2" points="22.28 51.28 0.08 64.09 22.28 76.91 44.48 64.09 22.28 51.28"/><polygon class="cls-1" points="22.36 230.69 111.06 281.95 110.9 256.32 22.2 205.06 22.36 230.69"/><polygon class="cls-2" points="133.1 243.51 110.9 256.32 111.06 281.95 133.26 269.14 133.1 243.51"/><polygon class="cls-2" points="44.4 192.25 22.2 205.06 110.9 256.32 133.1 243.51 44.4 192.25"/><polygon class="cls-1" points="0.17 64.1 111.06 128.06 110.9 102.43 0 38.47 0.17 64.1"/><polygon class="cls-2" points="133.1 89.61 110.9 102.43 111.06 128.06 133.26 115.25 133.1 89.61"/><polygon class="cls-2" points="22.2 25.65 0 38.47 110.9 102.43 133.1 89.61 22.2 25.65"/><polygon class="cls-1" points="111.06 128.06 110.9 102.43 133.26 115.25 133.05 140.89 111.06 128.06"/><polygon class="cls-3" points="133.1 89.61 133.26 115.25 155.22 102.43 133.1 89.61"/><polygon class="cls-4" points="133.05 140.89 133.26 115.25 155.22 102.43 155.22 128.06 133.05 140.89"/><polygon class="cls-3" points="244.03 25.56 133.1 89.61 155.22 102.43 266.07 38.47 244.03 25.56"/><polygon class="cls-4" points="266.07 63.91 266.07 38.47 155.22 102.43 155.22 128.06 266.07 63.91"/><polygon class="cls-4" points="244.01 128.06 244.03 76.66 266.07 63.91 266.07 115.17 244.01 128.06"/><polygon class="cls-3" points="221.84 115.25 221.84 89.51 244.03 76.66 244.01 128.06 221.84 115.25"/><polygon class="cls-4" points="155.25 281.86 155.22 256.21 177.45 243.41 177.28 269.14 155.25 281.86"/><polygon class="cls-4" points="266.07 192.25 177.45 243.41 177.28 269.14 266.07 217.88 266.07 192.25"/><polygon class="cls-4" points="244.11 102.48 244.03 128.1 266.09 115.21 266.17 89.59 244.11 102.48"/><polygon class="cls-3" points="221.94 89.67 244.11 102.48 244.03 128.1 221.86 115.29 221.94 89.67"/><polygon class="cls-1" points="110.9 256.32 110.9 282.05 133.1 294.77 133.1 269.14 110.9 256.32"/><polygon class="cls-4" points="155.29 256.32 133.1 269.14 133.1 294.77 155.29 281.95 155.29 256.32"/><polygon class="cls-3" points="221.84 192.15 133.1 243.51 155.29 256.32 244.01 204.95 221.84 192.15"/><polygon class="cls-3" points="244.03 128.1 244.01 204.95 221.84 192.15 221.86 115.29 244.03 128.1"/><polygon class="cls-4" points="266.09 115.21 266.07 192.25 244.01 204.95 244.03 128.1 266.09 115.21"/><polygon class="cls-3" points="133.1 243.51 133.1 269.14 155.29 256.32 133.1 243.51"/><polygon class="cls-4" points="177.65 38.45 177.65 12.82 199.85 25.63 177.65 38.45"/><polygon class="cls-3" points="155.46 25.63 177.65 12.82 177.65 38.45 155.46 25.63"/><polygon class="cls-4" points="155.46 51.26 177.65 38.45 155.46 25.63 155.46 51.26"/><polygon class="cls-3" points="133.24 38.43 155.46 25.63 155.46 51.26 133.24 38.43"/><polygon class="cls-4" points="133.24 64.09 155.46 51.26 133.24 38.43 133.24 64.09"/><polygon class="cls-1" points="88.87 38.45 88.87 12.82 66.67 25.63 88.87 38.45"/><polygon class="cls-2" points="111.07 25.63 88.87 38.45 88.87 12.82 111.07 25.63"/><polygon class="cls-1" points="111.06 51.26 111.07 25.63 88.87 38.45 111.06 51.26"/><polygon class="cls-2" points="133.24 38.43 111.07 25.63 111.06 51.26 133.24 38.43"/><polygon class="cls-1" points="133.24 64.09 111.06 51.26 133.24 38.43 133.24 64.09"/><polygon class="cls-3" points="199.85 0 177.65 12.82 199.85 25.63 199.85 0"/><polygon class="cls-4" points="222.05 12.82 199.85 25.63 199.85 0 222.05 12.82"/><polygon class="cls-2" points="66.67 25.63 66.67 0 88.87 12.82 66.67 25.63"/><polygon class="cls-1" points="44.48 12.82 66.67 0 66.67 25.63 44.48 12.82"/><polygon class="cls-3" points="88.68 151.72 133.05 177.34 177.46 151.72 155.26 138.9 133.07 151.72 110.88 138.9 88.68 151.72"/><polygon class="cls-5" points="177.46 151.72 133.05 177.34 133.04 202.97 133.01 228.58 155.24 215.78 155.24 190.25 177.43 177.34 177.46 151.72"/><polygon class="cls-6" points="88.68 151.72 133.05 177.34 133.01 228.58 110.84 215.78 110.84 190.25 88.64 177.34 88.68 151.72"/></svg>