<svg id="Layer_1" data-name="Layer 1" xmlns="http://www.w3.org/2000/svg" viewBox="0 0 266.18 294.77"><defs><style>.cls-1{fill:#f72585;}.cls-2{fill:#b5179e;}.cls-3{fill:#4895ef;}.cls-4{fill:#4cc9f0;}.cls-5{fill:#0466c8;}.cls-6{fill:#0353a4;}</style></defs><polygon class="cls-1" points="22.21 205.05 22.21 206.92 22.2 205.06 22.21 205.05"/><polygon class="cls-2" points="133.27 269.04 133.27 269.14 133.1 269.24 133.1 269.14 110.91 256.32 110.9 256.32 44.31 217.83 22.21 205.07 22.21 205.05 22.28 76.91 22.33 76.88 44.47 89.65 44.41 192.26 133.1 243.51 133.27 269.04"/><polygon class="cls-2" points="44.48 64.1 44.48 64.12 44.46 64.11 44.48 64.1"/><polygon class="cls-2" points="44.48 64.1 44.46 64.11 22.25 51.3 22.28 51.28 44.48 64.1"/><polygon class="cls-1" points="22.21 205.07 22.21 206.92 22.2 205.06 22.21 205.07"/><polygon class="cls-2" points="110.91 256.32 110.91 257.83 110.9 256.32 110.91 256.32"/><polygon class="cls-2" points="22.21 205.05 22.21 205.07 22.2 205.06 22.21 205.05"/><polygon class="cls-1" points="110.91 256.32 133.1 269.14 133.1 294.77 110.91 282.05 110.91 281.86 22.37 230.69 22.37 230.5 22.2 230.6 0 217.78 0.09 64.1 0.17 64.05 0.01 38.47 22.25 51.3 44.46 64.11 44.48 64.12 110.9 102.43 133.27 115.25 133.06 140.89 111.07 128.06 44.47 89.65 22.33 76.88 22.28 76.91 22.21 205.05 22.2 205.06 22.21 206.92 22.21 205.07 44.31 217.83 110.9 256.32 110.91 257.83 110.91 256.32"/><polygon class="cls-2" points="133.27 115.25 110.9 102.43 44.48 64.12 44.46 64.11 22.25 51.3 0.01 38.47 22.2 25.65 133.1 89.62 133.27 115.25"/><polygon class="cls-3" points="266.07 38.47 155.23 102.43 133.27 115.25 133.1 89.62 244.04 25.56 266.07 38.47"/><polygon class="cls-4" points="266.18 89.59 266.1 115.21 266.07 192.25 266.07 217.88 177.29 269.14 155.3 281.84 155.3 281.95 133.1 294.77 133.1 269.24 133.27 269.14 133.27 269.04 155.23 256.36 155.3 256.32 177.45 243.49 224.28 216.38 244.01 204.95 244.03 128.11 244.03 128.05 244.12 102.48 244.02 102.43 244.04 76.66 221.84 89.51 155.23 128.06 133.06 140.89 133.27 115.25 155.23 102.43 266.07 38.47 266.07 89.65 266.18 89.59"/><polygon class="cls-4" points="244.12 102.48 244.03 128.05 244.01 128.06 244.02 102.43 244.12 102.48"/><polygon class="cls-3" points="244.01 128.06 244.03 128.05 244.03 128.11 244.01 204.95 224.28 216.38 177.45 243.41 155.23 256.21 155.23 256.36 133.27 269.04 133.1 243.51 221.85 192.15 221.87 115.29 221.87 115.27 221.84 115.25 221.84 89.51 244.04 76.66 244.02 102.43 244.01 128.06"/><polygon class="cls-4" points="177.45 243.41 177.45 243.49 155.3 256.32 155.23 256.36 155.23 256.21 177.45 243.41"/><polygon class="cls-4" points="224.28 216.38 177.45 243.49 177.45 243.41 224.28 216.38"/><polygon class="cls-3" points="244.12 102.48 244.03 128.05 244.01 128.06 244.02 102.43 244.12 102.48"/><polygon class="cls-4" points="133.27 269.04 133.27 269.14 133.1 269.24 133.1 269.14 133.27 269.04"/><polygon class="cls-3" points="224.28 216.38 177.45 243.49 155.3 256.32 155.23 256.28 155.23 256.21 177.45 243.41 224.28 216.38"/><polygon class="cls-3" points="133.27 269.04 133.1 269.14 133.1 243.51 133.27 269.04"/><polygon class="cls-3" points="155.3 256.32 155.23 256.36 155.23 256.28 155.3 256.32"/><polygon class="cls-4" points="177.66 38.45 177.66 12.82 199.85 25.63 177.66 38.45"/><polygon class="cls-3" points="155.46 25.63 177.66 12.82 177.66 38.45 155.46 25.63"/><polygon class="cls-4" points="155.46 51.26 177.66 38.45 155.46 25.63 155.46 51.26"/><polygon class="cls-3" points="133.24 38.43 155.46 25.63 155.46 51.26 133.24 38.43"/><polygon class="cls-4" points="133.24 64.09 155.46 51.26 133.24 38.43 133.24 64.09"/><polygon class="cls-1" points="88.88 38.45 88.88 12.82 66.68 25.63 88.88 38.45"/><polygon class="cls-2" points="111.07 25.63 88.88 38.45 88.88 12.82 111.07 25.63"/><polygon class="cls-1" points="111.07 51.26 111.07 25.63 88.88 38.45 111.07 51.26"/><polygon class="cls-2" points="133.24 38.43 111.07 25.63 111.07 51.26 133.24 38.43"/><polygon class="cls-1" points="133.24 64.09 111.07 51.26 133.24 38.43 133.24 64.09"/><polygon class="cls-3" points="199.85 0 177.66 12.82 199.85 25.63 199.85 0"/><polygon class="cls-4" points="222.05 12.82 199.85 25.63 199.85 0 222.05 12.82"/><polygon class="cls-2" points="66.68 25.63 66.68 0 88.88 12.82 66.68 25.63"/><polygon class="cls-1" points="44.48 12.82 66.68 0 66.68 25.63 44.48 12.82"/><polygon class="cls-3" points="88.68 151.72 133.05 177.34 177.47 151.72 155.27 138.9 133.07 151.72 110.88 138.9 88.68 151.72"/><polygon class="cls-5" points="177.47 151.72 133.05 177.34 133.04 202.97 133.02 228.58 155.24 215.78 155.24 190.25 177.44 177.34 177.47 151.72"/><polygon class="cls-6" points="88.68 151.72 133.05 177.34 133.02 228.58 110.85 215.78 110.85 190.25 88.65 177.34 88.68 151.72"/></svg>