<svg xmlns="http://www.w3.org/2000/svg" xmlns:xlink="http://www.w3.org/1999/xlink" width="232" height="232" viewBox="0 0 232 232">
  <defs>
    <clipPath id="clip-calendar">
      <rect width="232" height="232"/>
    </clipPath>
  </defs>
  <g id="calendar" clip-path="url(#clip-calendar)">
    <rect width="232" height="232" fill="#e2e2e2"/>
    <text id="ปฏิทินการศึกษา" transform="translate(63 178)" fill="#707070" font-size="20" font-family="FCSubjectCondensedNoncml-Reg, 'FC Subject \[Non-cml\.\]'"><tspan x="0" y="0">ปฏิทินการศึกษา</tspan></text>
    <path id="Icon_metro-calendar" data-name="Icon metro-calendar" d="M25.856,29.87H35.17v9.314H25.856Zm13.971,0h9.314v9.314H39.827Zm13.971,0h9.314v9.314H53.8ZM11.885,57.813H21.2v9.314H11.885Zm13.971,0H35.17v9.314H25.856Zm13.971,0h9.314v9.314H39.827ZM25.856,43.842H35.17v9.314H25.856Zm13.971,0h9.314v9.314H39.827Zm13.971,0h9.314v9.314H53.8Zm-41.914,0H21.2v9.314H11.885ZM63.113,1.928V6.585H53.8V1.928H21.2V6.585H11.885V1.928H2.571V76.441H72.427V1.928H63.113ZM67.77,71.784H7.228V20.556H67.77Z" transform="translate(78.501 51.817)" opacity="0.52"/>
  </g>
</svg>
