
<svg xmlns="http://www.w3.org/2000/svg" xmlns:xlink="http://www.w3.org/1999/xlink" width="232" height="232" viewBox="0 0 232 232">

  <defs>
    <clipPath id="clip-scholar">
      <rect width="232" height="232"/>
    </clipPath>
  </defs>
  <g id="scholar" clip-path="url(#clip-scholar)">
    <rect width="232" height="232" fill="#e2e2e2"/>
    <text id="ทุนการศึกษา" transform="translate(74 178)" fill="#707070" font-size="20" font-family="FCSubjectCondensedNoncml-Reg, 'FC Subject \[Non-cml\.\]'"><tspan x="0" y="0">ทุนการศึกษา</tspan></text>
    <path id="Icon_awesome-money-bill-alt" data-name="Icon awesome-money-bill-alt" d="M44.917,33.083H42.875V21.854a1.021,1.021,0,0,0-1.021-1.021H40.121a3.058,3.058,0,0,0-1.7.514l-1.956,1.3a1.02,1.02,0,0,0-.283,1.415l1.133,1.7a1.02,1.02,0,0,0,1.415.283l.06-.04v7.074H36.75A1.021,1.021,0,0,0,35.729,34.1v2.042a1.021,1.021,0,0,0,1.021,1.021h8.167a1.021,1.021,0,0,0,1.021-1.021V34.1A1.021,1.021,0,0,0,44.917,33.083ZM77.583,4.5H4.083A4.084,4.084,0,0,0,0,8.583V49.417A4.084,4.084,0,0,0,4.083,53.5h73.5a4.084,4.084,0,0,0,4.083-4.083V8.583A4.084,4.084,0,0,0,77.583,4.5ZM6.125,47.375V39.208a8.166,8.166,0,0,1,8.167,8.167Zm0-28.583V10.625h8.167A8.166,8.166,0,0,1,6.125,18.792Zm34.708,24.5c-6.766,0-12.25-6.4-12.25-14.292s5.484-14.292,12.25-14.292,12.25,6.4,12.25,14.292S47.6,43.292,40.833,43.292Zm34.708,4.083H67.375a8.166,8.166,0,0,1,8.167-8.167Zm0-28.583a8.166,8.166,0,0,1-8.167-8.167h8.167Z" transform="translate(75.667 62.5)" opacity="0.52"/>
  </g>
</svg>
