<svg xmlns="http://www.w3.org/2000/svg" xmlns:xlink="http://www.w3.org/1999/xlink" viewBox="0 0 561.97 524.1"><defs><style>.cls-1{fill:#fbc4ab;}.cls-2{fill:#f4978e;}.cls-3{fill:#f08080;}.cls-4{fill:#fcd5ce;}.cls-5{isolation:isolate;}.cls-6{clip-path:url(#clip-path);}.cls-7{fill:#f8ad9d;}.cls-8{clip-path:url(#clip-path-2);}.cls-9{clip-path:url(#clip-path-3);}.cls-10{clip-path:url(#clip-path-4);}.cls-11{clip-path:url(#clip-path-5);}.cls-12{clip-path:url(#clip-path-6);}</style><clipPath id="clip-path" transform="translate(26.32 12.05)"><path class="cls-1" d="M273.12,139.21l-.29,104.89q0-5.34-7.15-9.47a32.22,32.22,0,0,0-17-4.11,35.91,35.91,0,0,0-17.72,4.9l.3-104.89A35.88,35.88,0,0,1,249,125.64a32.22,32.22,0,0,1,17,4.11C270.76,132.51,273.13,135.66,273.12,139.21Z"/></clipPath><clipPath id="clip-path-2" transform="translate(26.32 12.05)"><path class="cls-2" d="M187.64,227.62l-.3,104.88q-20.15,11.72-45.26,11.69t-45.36-11.7q-20.28-11.7-20.36-26.24l.3-104.88q.09,14.55,20.35,26.24t45.37,11.7Q167.51,239.31,187.64,227.62Z"/></clipPath><clipPath id="clip-path-3" transform="translate(26.32 12.05)"><path class="cls-1" d="M383.48,202.14,383.18,307q0-4.53-6.33-8.2a30,30,0,0,0-16.4-4.11,37.89,37.89,0,0,0-17.72,5.54c-6,3.48-9.92,7.86-11.8,13.19q-2.69,7.57-2.72,24.15l.3-104.88c0-11.06.92-19.1,2.72-24.16,1.87-5.32,5.82-9.71,11.8-13.18a37.66,37.66,0,0,1,17.71-5.54,30,30,0,0,1,16.4,4.1C381.38,196.38,383.48,199.12,383.48,202.14Z"/></clipPath><clipPath id="clip-path-4" transform="translate(26.32 12.05)"><path class="cls-3" d="M287.79,245.38l-.3,104.89q0-3.7-.2-8-.24-4.59-.22-8.75l.3-104.88c0,2.77.06,5.69.22,8.74Q287.8,241.69,287.79,245.38Z"/></clipPath><clipPath id="clip-path-5" transform="translate(26.32 12.05)"><path class="cls-1" d="M228.11,371.3l.29-104.88a8.78,8.78,0,0,1,.12-1.34c.69-4.21,4.5-8.33,11.39-12.33l-.29,104.88q-10.35,6-11.4,12.33A8.75,8.75,0,0,0,228.11,371.3Z"/></clipPath><clipPath id="clip-path-6" transform="translate(26.32 12.05)"><path class="cls-2" d="M328.51,236.5l-.29,104.88q-.08,23.21-5,34.75-5.14,12-20.64,21a88.59,88.59,0,0,1-30.09,10.66,101.65,101.65,0,0,1-33.16.09A88.38,88.38,0,0,1,209,397.31c-9.14-5.27-15.25-11.12-18.4-17.54a21.91,21.91,0,0,1-2.32-9.64l.3-104.88a21.83,21.83,0,0,0,2.32,9.63c3.15,6.43,9.26,12.28,18.4,17.55A88.38,88.38,0,0,0,239.65,303a101.65,101.65,0,0,0,33.16-.09,88.59,88.59,0,0,0,30.09-10.66q15.51-9,20.64-21Q328.46,259.72,328.51,236.5Z"/></clipPath></defs><g id="Layer_2" data-name="Layer 2"><rect class="cls-4" width="561.97" height="524.1"/><g class="cls-5"><path class="cls-1" d="M273.12,139.21l-.29,104.89q0-5.34-7.15-9.47a32.22,32.22,0,0,0-17-4.11,35.91,35.91,0,0,0-17.72,4.9l.3-104.89A35.88,35.88,0,0,1,249,125.64a32.22,32.22,0,0,1,17,4.11C270.76,132.51,273.13,135.66,273.12,139.21Z" transform="translate(26.32 12.05)"/><g class="cls-6"><g class="cls-5"><path class="cls-1" d="M273.12,139.21l-.29,104.89q0-5.34-7.15-9.47a30.5,30.5,0,0,0-3.95-1.9L262,127.85a28.8,28.8,0,0,1,4,1.9c4.78,2.76,7.15,5.91,7.14,9.46" transform="translate(26.32 12.05)"/><path class="cls-1" d="M262,127.85l-.29,104.88c-.91-.36-1.84-.67-2.79-.95l.29-104.88c.95.27,1.88.59,2.79.95" transform="translate(26.32 12.05)"/><path class="cls-1" d="M259.23,126.9l-.29,104.88c-.74-.21-1.5-.39-2.26-.55L257,126.35c.77.16,1.52.34,2.26.55" transform="translate(26.32 12.05)"/><path class="cls-1" d="M257,126.35l-.29,104.88c-.69-.14-1.38-.26-2.08-.36L254.9,126q1,.15,2.07.36" transform="translate(26.32 12.05)"/><path class="cls-1" d="M254.9,126l-.3,104.88c-.67-.1-1.35-.17-2-.23l.3-104.88c.69.06,1.38.13,2.05.23" transform="translate(26.32 12.05)"/><path class="cls-1" d="M252.85,125.76l-.3,104.88c-.7-.06-1.42-.1-2.15-.11l.3-104.89c.73,0,1.44.06,2.15.12" transform="translate(26.32 12.05)"/><path class="cls-1" d="M250.7,125.64l-.3,104.89c-.55,0-1.11,0-1.67,0l-.68,0,.3-104.89H249c.56,0,1.12,0,1.67,0" transform="translate(26.32 12.05)"/><path class="cls-1" d="M248.35,125.65l-.3,104.89c-.83,0-1.66.08-2.48.16l.3-104.88c.82-.08,1.64-.14,2.48-.17" transform="translate(26.32 12.05)"/><path class="cls-1" d="M245.87,125.82l-.3,104.88c-1,.1-1.93.23-2.89.4l.3-104.88c1-.17,1.92-.3,2.89-.4" transform="translate(26.32 12.05)"/><path class="cls-1" d="M243,126.22l-.3,104.88a35.91,35.91,0,0,0-4.57,1.14l.3-104.88a35.49,35.49,0,0,1,4.57-1.14" transform="translate(26.32 12.05)"/><path class="cls-1" d="M238.41,127.36l-.3,104.88a36,36,0,0,0-7.1,3.18l.3-104.89a36.53,36.53,0,0,1,7.1-3.17" transform="translate(26.32 12.05)"/></g></g></g><polygon class="cls-7" points="297.2 191.29 296.91 296.17 268.42 279.73 268.72 174.85 297.2 191.29"/><path class="cls-2" d="M313.19,141.31c0,.28,0,.55-.06.82s-.07.63-.12.94-.07.54-.12.81-.14.64-.21,1l-.18.72c-.09.34-.2.67-.31,1s-.15.46-.23.69-.26.64-.39,1-.2.48-.31.72-.33.66-.5,1-.22.45-.34.68-.26.41-.39.62c-.22.37-.44.74-.68,1.11s-.33.46-.49.7-.48.67-.74,1-.73.92-1.12,1.38l-.23.25c-.36.41-.74.82-1.13,1.23-.11.1-.21.21-.31.32q-.68.67-1.41,1.35c-.62.57-1.27,1.14-1.95,1.7l-.26.21c-.61.49-1.23,1-1.89,1.46-.25.19-.52.37-.78.56-.51.36-1,.73-1.55,1.09l-1,.63c-.52.33-1,.67-1.58,1l-1.75,1.05L293.06,218l.14-51.68-22.32,13-.3,104.89,22.33-13h0c.42-.24.83-.48,1.23-.73l.51-.32c.54-.33,1.06-.67,1.58-1l1-.63c.53-.36,1.05-.72,1.56-1.09l.77-.56c.66-.48,1.29-1,1.9-1.47l.25-.2c.68-.56,1.33-1.13,1.95-1.7l.11-.09c.45-.42.88-.84,1.3-1.26l.31-.32c.39-.41.77-.81,1.13-1.22.08-.09.16-.17.23-.26.35-.4.68-.8,1-1.2l.12-.17c.26-.34.5-.67.74-1s.34-.47.49-.7.46-.73.68-1.1c.12-.19.24-.37.35-.56a.25.25,0,0,1,0-.07l.35-.67c.17-.33.34-.66.5-1s.2-.48.3-.72.24-.54.34-.81a.88.88,0,0,0,.05-.15c.09-.23.16-.46.23-.69s.22-.66.31-1,.12-.49.18-.73.12-.46.16-.69,0-.19,0-.28c.05-.27.09-.54.13-.8s.08-.63.11-1,.05-.54.06-.81,0-.39,0-.58,0-.48,0-.72l.3-104.88C313.24,140.45,313.21,140.88,313.19,141.31Z" transform="translate(26.32 12.05)"/><path class="cls-7" d="M125.74,191.88l-.55.33c-.17.1-.3.2-.46.3-.5.32-1,.63-1.43,1l-.66.49c-.43.33-.83.66-1.21,1-.11.1-.26.2-.37.31a1.36,1.36,0,0,0-.12.12,17.54,17.54,0,0,0-1.46,1.57l-.07.07-.28.42c-.2.29-.41.57-.58.86l-.1.15c-.1.18-.16.36-.25.54s-.21.4-.29.61l-.07.14c-.07.21-.12.43-.18.64s-.11.34-.15.52a.54.54,0,0,1,0,.1,9.33,9.33,0,0,0-.14,1.17v.12a1.48,1.48,0,0,0,0,.21L117,307.38v-.33a7.89,7.89,0,0,1,.18-1.28c0-.17.1-.35.14-.52a7.92,7.92,0,0,1,.26-.78c.08-.2.18-.41.28-.61s.22-.46.35-.68.38-.58.58-.87.23-.33.36-.49a16,16,0,0,1,1.45-1.57l.5-.43c.37-.33.77-.66,1.2-1,.21-.17.44-.33.67-.5.45-.32.92-.63,1.42-.94.34-.21.65-.43,1-.63L231,235.42l.3-104.89Z" transform="translate(26.32 12.05)"/><polygon class="cls-7" points="241.18 223.85 240.88 328.73 213.66 344.55 213.96 239.67 241.18 223.85"/><path class="cls-3" d="M292.89,113.78q20.26,11.7,20.35,26.24t-20,26.25l-22.32,13L242.4,162.8l22.32-13c5.43-3.16,8.23-6.6,8.4-10.28s-2.21-7-7.14-9.8a32.22,32.22,0,0,0-17-4.11,35.88,35.88,0,0,0-17.72,4.89L125.74,191.88c-5.43,3.16-8.24,6.6-8.4,10.28s2.23,7,7.16,9.81a32.05,32.05,0,0,0,16.93,4.1,35.91,35.91,0,0,0,17.72-4.89l27.22-15.82,28.48,16.44-27.21,15.82q-20.14,11.7-45.26,11.69T97,227.61q-20.26-11.7-20.35-26.24t20.06-26.24l105.57-61.35q20.1-11.69,45.23-11.7T292.89,113.78Z" transform="translate(26.32 12.05)"/><g class="cls-5"><path class="cls-2" d="M187.64,227.62l-.3,104.88q-20.15,11.72-45.26,11.69t-45.36-11.7q-20.28-11.7-20.36-26.24l.3-104.88q.09,14.55,20.35,26.24t45.37,11.7Q167.51,239.31,187.64,227.62Z" transform="translate(26.32 12.05)"/><g class="cls-8"><g class="cls-5"><path class="cls-2" d="M187.64,227.62l-.3,104.88a84.2,84.2,0,0,1-16.61,7.4L171,235a84.25,84.25,0,0,0,16.62-7.39" transform="translate(26.32 12.05)"/><path class="cls-2" d="M171,235l-.29,104.89a88.26,88.26,0,0,1-11.21,2.78l.3-104.88A86.07,86.07,0,0,0,171,235" transform="translate(26.32 12.05)"/><path class="cls-2" d="M159.82,237.8l-.3,104.88q-3.61.66-7.36,1l.3-104.89c2.49-.24,4.95-.59,7.36-1" transform="translate(26.32 12.05)"/><path class="cls-2" d="M152.46,238.82l-.3,104.89q-3.19.32-6.48.42l.3-104.88c2.19-.07,4.35-.22,6.48-.43" transform="translate(26.32 12.05)"/><path class="cls-2" d="M146,239.25l-.3,104.88q-1.78.06-3.6.06c-.89,0-1.77,0-2.65,0l.29-104.88c.89,0,1.77,0,2.66,0q1.81,0,3.6-.06" transform="translate(26.32 12.05)"/><path class="cls-2" d="M139.72,239.28l-.29,104.88q-2.93-.07-5.79-.31l.3-104.88q2.85.24,5.78.31" transform="translate(26.32 12.05)"/><path class="cls-2" d="M133.94,239l-.3,104.88q-2.82-.23-5.58-.62l.3-104.88q2.76.39,5.58.62" transform="translate(26.32 12.05)"/><path class="cls-2" d="M128.36,238.35l-.3,104.88q-2.88-.41-5.69-1l.29-104.88q2.82.58,5.7,1" transform="translate(26.32 12.05)"/><path class="cls-2" d="M122.66,237.36l-.29,104.88q-3.2-.66-6.28-1.54l.3-104.88c2.06.58,4.15,1.1,6.27,1.54" transform="translate(26.32 12.05)"/><path class="cls-2" d="M116.39,235.82l-.3,104.88q-4-1.15-7.92-2.68l.3-104.88q3.89,1.53,7.92,2.68" transform="translate(26.32 12.05)"/><path class="cls-2" d="M108.47,233.14,108.17,338a84.33,84.33,0,0,1-11.45-5.53q-20.28-11.7-20.36-26.24l.3-104.88q.09,14.55,20.35,26.24a86.24,86.24,0,0,0,11.46,5.53" transform="translate(26.32 12.05)"/></g></g></g><g class="cls-5"><path class="cls-1" d="M383.48,202.14,383.18,307q0-4.53-6.33-8.2a30,30,0,0,0-16.4-4.11,37.89,37.89,0,0,0-17.72,5.54c-6,3.48-9.92,7.86-11.8,13.19q-2.69,7.57-2.72,24.15l.3-104.88c0-11.06.92-19.1,2.72-24.16,1.87-5.32,5.82-9.71,11.8-13.18a37.66,37.66,0,0,1,17.71-5.54,30,30,0,0,1,16.4,4.1C381.38,196.38,383.48,199.12,383.48,202.14Z" transform="translate(26.32 12.05)"/><g class="cls-9"><g class="cls-5"><path class="cls-1" d="M383.48,202.14,383.18,307q0-4.53-6.33-8.2a31.31,31.31,0,0,0-4.25-2.06l.3-104.88a31.75,31.75,0,0,1,4.24,2.05c4.24,2.45,6.34,5.19,6.34,8.21" transform="translate(26.32 12.05)"/><path class="cls-1" d="M372.9,191.88l-.3,104.88a28,28,0,0,0-2.76-.93l.3-104.89c.93.27,1.85.58,2.76.94" transform="translate(26.32 12.05)"/><path class="cls-1" d="M370.14,190.94l-.3,104.89c-.69-.2-1.39-.37-2.1-.52l.3-104.88c.7.14,1.4.32,2.1.51" transform="translate(26.32 12.05)"/><path class="cls-1" d="M368,190.43l-.3,104.88c-.61-.12-1.22-.23-1.84-.32l.3-104.88c.62.09,1.23.19,1.84.32" transform="translate(26.32 12.05)"/><path class="cls-1" d="M366.2,190.11,365.9,295c-.58-.08-1.16-.15-1.74-.19l.3-104.89c.58.05,1.16.12,1.74.2" transform="translate(26.32 12.05)"/><path class="cls-1" d="M364.46,189.91l-.3,104.89c-.58-.05-1.17-.08-1.75-.1l.29-104.88c.59,0,1.17.05,1.76.09" transform="translate(26.32 12.05)"/><path class="cls-1" d="M362.7,189.82l-.29,104.88c-.62,0-1.25,0-1.88,0l.3-104.88c.63,0,1.25,0,1.87,0" transform="translate(26.32 12.05)"/><path class="cls-1" d="M360.83,189.83l-.3,104.88h-.08c-.67,0-1.35.07-2,.14l.3-104.88c.67-.07,1.34-.12,2-.14h.09" transform="translate(26.32 12.05)"/><path class="cls-1" d="M358.73,190l-.3,104.88c-.85.08-1.69.2-2.54.36l.29-104.89c.85-.15,1.7-.27,2.55-.35" transform="translate(26.32 12.05)"/><path class="cls-1" d="M356.18,190.32l-.29,104.89a32.69,32.69,0,0,0-4.51,1.13l.3-104.89a36.13,36.13,0,0,1,4.5-1.13" transform="translate(26.32 12.05)"/><path class="cls-1" d="M351.68,191.45l-.3,104.89a44.2,44.2,0,0,0-8.65,3.91l-.59.35.3-104.88.59-.35a44.26,44.26,0,0,1,8.65-3.92" transform="translate(26.32 12.05)"/><path class="cls-1" d="M342.44,195.72l-.3,104.88a31.74,31.74,0,0,0-5.17,3.85l.3-104.89a31.85,31.85,0,0,1,5.17-3.84" transform="translate(26.32 12.05)"/><path class="cls-1" d="M337.27,199.56,337,304.45a24.59,24.59,0,0,0-2.66,2.87l.3-104.88a24.6,24.6,0,0,1,2.66-2.88" transform="translate(26.32 12.05)"/><path class="cls-1" d="M334.61,202.44l-.3,104.88a21.62,21.62,0,0,0-1.86,2.77l.3-104.88a21.62,21.62,0,0,1,1.86-2.77" transform="translate(26.32 12.05)"/><path class="cls-1" d="M332.75,205.21l-.3,104.88a21.34,21.34,0,0,0-1.37,3l.3-104.89a20.62,20.62,0,0,1,1.37-2.94" transform="translate(26.32 12.05)"/><path class="cls-1" d="M331.38,208.15,331.08,313l-.15.4a32.33,32.33,0,0,0-1.22,4.58L330,213.14a33.83,33.83,0,0,1,1.23-4.59l.15-.4" transform="translate(26.32 12.05)"/><path class="cls-1" d="M330,213.14,329.71,318a89.65,89.65,0,0,0-1.42,14.71l.29-104.88A91.79,91.79,0,0,1,330,213.14" transform="translate(26.32 12.05)"/><path class="cls-1" d="M328.58,227.85l-.29,104.88c-.05,1.55-.08,3.17-.08,4.86l.3-104.88c0-1.69,0-3.31.07-4.86" transform="translate(26.32 12.05)"/></g></g></g><polygon class="cls-7" points="422.5 245.67 422.2 350.55 391.3 336.16 391.59 231.27 422.5 245.67"/><path class="cls-2" d="M423.64,202.77c0,.43,0,.86-.05,1.29s-.11,1.05-.19,1.58c0,.14,0,.29-.07.43-.06.35-.14.7-.22,1.05l-.18.75c-.09.32-.19.63-.29.95l-.24.73c-.11.31-.24.6-.36.9s-.22.55-.35.83-.29.59-.44.88-.27.54-.42.81-.28.49-.43.73-.43.73-.67,1.09l-.52.75c-.24.35-.49.7-.76,1s-.53.69-.81,1l-.28.34q-.63.75-1.32,1.47l-.31.32c-.38.4-.78.8-1.18,1.19l-.42.4c-.51.48-1,.95-1.57,1.42l-.23.19q-.75.65-1.56,1.29l-.38.31c-.6.47-1.22.94-1.86,1.4l-.38.27c-.57.42-1.16.83-1.77,1.24l-.37.25c-.69.46-1.41.92-2.13,1.38l-.5.31c-.75.46-1.51.92-2.3,1.38l-4.9,2.85-.3,104.88,4.9-2.84,1.53-.91v0h0v0l.77-.48.5-.31c.73-.45,1.44-.91,2.13-1.37l.37-.25c.61-.42,1.2-.83,1.78-1.25l.37-.27c.64-.46,1.26-.93,1.86-1.4l.38-.31c.54-.42,1.06-.85,1.57-1.29l.22-.19c.44-.37.86-.75,1.27-1.13l.3-.29.42-.39c.41-.4.8-.8,1.18-1.19l.31-.32q.69-.74,1.32-1.47c.09-.12.18-.23.28-.34l.56-.69c.09-.11.17-.23.25-.34.27-.35.52-.7.77-1.05l.51-.74c.24-.37.46-.73.68-1.09.1-.18.22-.36.32-.53s.07-.14.11-.2c.15-.27.28-.54.42-.81s.3-.6.43-.89.24-.55.35-.82l.28-.66c0-.08.05-.16.08-.24.09-.25.16-.49.24-.74s.2-.63.29-.95.12-.5.18-.75.1-.38.14-.57.05-.32.08-.48.05-.29.07-.43c.08-.52.15-1,.19-1.58,0-.27,0-.53,0-.8s0-.33,0-.49h0Z" transform="translate(26.32 12.05)"/><g class="cls-5"><path class="cls-3" d="M287.79,245.38l-.3,104.89q0-3.7-.2-8-.24-4.59-.22-8.75l.3-104.88c0,2.77.06,5.69.22,8.74Q287.8,241.69,287.79,245.38Z" transform="translate(26.32 12.05)"/><g class="cls-10"><g class="cls-5"><path class="cls-3" d="M287.79,245.38l-.3,104.89q0-3.7-.2-8-.24-4.59-.22-8.75l.3-104.88c0,2.77.06,5.69.22,8.74q.21,4.28.2,8" transform="translate(26.32 12.05)"/></g></g></g><polygon class="cls-1" points="273.3 260.69 273 365.57 265.94 369.68 266.24 264.79 273.3 260.69"/><g class="cls-5"><path class="cls-1" d="M228.11,371.3l.29-104.88a8.78,8.78,0,0,1,.12-1.34c.69-4.21,4.5-8.33,11.39-12.33l-.29,104.88q-10.35,6-11.4,12.33A8.75,8.75,0,0,0,228.11,371.3Z" transform="translate(26.32 12.05)"/><g class="cls-11"><g class="cls-5"><path class="cls-1" d="M239.91,252.75l-.29,104.88-.86.51.3-104.89c.28-.17.56-.34.85-.5" transform="translate(26.32 12.05)"/><path class="cls-1" d="M239.06,253.25l-.3,104.89a37.2,37.2,0,0,0-5.94,4.35l.3-104.88a36.32,36.32,0,0,1,5.94-4.36" transform="translate(26.32 12.05)"/><path class="cls-1" d="M233.12,257.61l-.3,104.88a20.15,20.15,0,0,0-2.17,2.33l.3-104.88a20.15,20.15,0,0,1,2.17-2.33" transform="translate(26.32 12.05)"/><path class="cls-1" d="M231,259.94l-.3,104.88a14.54,14.54,0,0,0-1.21,1.8l.29-104.88a14.66,14.66,0,0,1,1.22-1.8" transform="translate(26.32 12.05)"/><path class="cls-1" d="M229.73,261.74l-.29,104.88a10.62,10.62,0,0,0-.74,1.57L229,263.3a12.14,12.14,0,0,1,.73-1.56" transform="translate(26.32 12.05)"/><path class="cls-1" d="M229,263.3l-.3,104.89a9,9,0,0,0-.42,1.49l.29-104.89a9.59,9.59,0,0,1,.43-1.49" transform="translate(26.32 12.05)"/><path class="cls-1" d="M228.57,264.79l-.29,104.89-.06.28a8.81,8.81,0,0,0-.11,1.13l.3-104.88a8.81,8.81,0,0,1,.11-1.13c0-.1,0-.19,0-.29" transform="translate(26.32 12.05)"/><path class="cls-1" d="M228.41,266.21l-.3,104.88v.21l.29-104.88c0-.07,0-.14,0-.21" transform="translate(26.32 12.05)"/></g></g></g><path class="cls-2" d="M328.51,236.5l-.29,104.88q-.08,23.21-5,34.75-5.14,12-20.64,21a88.59,88.59,0,0,1-30.09,10.66,101.65,101.65,0,0,1-33.16.09A88.38,88.38,0,0,1,209,397.31c-9.14-5.27-15.25-11.12-18.4-17.54a21.91,21.91,0,0,1-2.32-9.64l.3-104.88a21.83,21.83,0,0,0,2.32,9.63c3.15,6.43,9.26,12.28,18.4,17.55A88.38,88.38,0,0,0,239.65,303a101.65,101.65,0,0,0,33.16-.09,88.59,88.59,0,0,0,30.09-10.66q15.51-9,20.64-21Q328.46,259.72,328.51,236.5Z" transform="translate(26.32 12.05)"/><g class="cls-12"><g class="cls-5"><path class="cls-2" d="M328.51,236.5l-.29,104.88c0,1.84,0,3.61-.09,5.34l.3-104.88c.05-1.73.08-3.51.08-5.34" transform="translate(26.32 12.05)"/><path class="cls-2" d="M328.43,241.84l-.3,104.88a119,119,0,0,1-2,19.54l.3-104.88a119,119,0,0,0,2-19.54" transform="translate(26.32 12.05)"/><path class="cls-2" d="M326.46,261.38l-.3,104.88a54.83,54.83,0,0,1-2.3,8.33l.29-104.88a55.11,55.11,0,0,0,2.31-8.33" transform="translate(26.32 12.05)"/><path class="cls-2" d="M324.15,269.71l-.29,104.88c-.2.53-.41,1-.62,1.54a34.16,34.16,0,0,1-1.59,3.21l.3-104.88a35.58,35.58,0,0,0,1.59-3.22c.21-.49.41-1,.61-1.53" transform="translate(26.32 12.05)"/><path class="cls-2" d="M322,274.46l-.3,104.88a36,36,0,0,1-3.08,4.58l.3-104.88a37.07,37.07,0,0,0,3.08-4.58" transform="translate(26.32 12.05)"/><path class="cls-2" d="M318.87,279l-.3,104.88a43.51,43.51,0,0,1-4.71,5.08l.3-104.88a45.31,45.31,0,0,0,4.71-5.08" transform="translate(26.32 12.05)"/><path class="cls-2" d="M314.16,284.12,313.86,389a61.88,61.88,0,0,1-10,7.43l.3-104.88a62.32,62.32,0,0,0,10-7.43" transform="translate(26.32 12.05)"/><path class="cls-2" d="M304.13,291.55l-.3,104.88-1.23.73a84.74,84.74,0,0,1-16.83,7.46l.3-104.88a85.9,85.9,0,0,0,16.83-7.46l1.23-.73" transform="translate(26.32 12.05)"/><path class="cls-2" d="M286.07,299.74l-.3,104.88a95,95,0,0,1-12,3l.3-104.89a93.3,93.3,0,0,0,12-3" transform="translate(26.32 12.05)"/><path class="cls-2" d="M274,302.72l-.3,104.89-1.22.21c-2.28.38-4.57.69-6.85.91l.3-104.88c2.28-.22,4.57-.53,6.85-.91l1.22-.22" transform="translate(26.32 12.05)"/><path class="cls-2" d="M266,303.85l-.3,104.88q-3.27.33-6.54.44l.3-104.88c2.18-.08,4.36-.22,6.54-.44" transform="translate(26.32 12.05)"/><path class="cls-2" d="M259.42,304.29l-.3,104.88q-3,.1-6,0l.3-104.89c2,.05,4,0,6,0" transform="translate(26.32 12.05)"/><path class="cls-2" d="M253.46,304.31l-.3,104.89q-2.91-.07-5.84-.32l.3-104.88c1.95.16,3.9.27,5.84.31" transform="translate(26.32 12.05)"/><path class="cls-2" d="M247.62,304l-.3,104.88q-3-.24-6.07-.68l.3-104.88c2,.29,4,.51,6.07.68" transform="translate(26.32 12.05)"/><path class="cls-2" d="M241.55,303.32l-.3,104.88c-.63-.09-1.27-.18-1.9-.29-1.42-.23-2.83-.49-4.22-.77l.3-104.89c1.39.29,2.79.55,4.22.78l1.9.29" transform="translate(26.32 12.05)"/><path class="cls-2" d="M235.43,302.25l-.3,104.89c-2.28-.48-4.52-1-6.72-1.65l.3-104.88q3.28.93,6.72,1.64" transform="translate(26.32 12.05)"/><path class="cls-2" d="M228.71,300.61l-.3,104.88a85,85,0,0,1-8.16-2.76l.3-104.88q4,1.56,8.16,2.76" transform="translate(26.32 12.05)"/><path class="cls-2" d="M220.55,297.85l-.3,104.88A82.74,82.74,0,0,1,209,397.31c-9.14-5.27-15.25-11.12-18.4-17.54a21.91,21.91,0,0,1-2.32-9.64l.3-104.88a21.83,21.83,0,0,0,2.32,9.63c3.15,6.43,9.26,12.28,18.4,17.55a83.94,83.94,0,0,0,11.26,5.42" transform="translate(26.32 12.05)"/></g></g><path class="cls-3" d="M404.07,178q20.52,11.85,19.52,26.09t-22.51,26.71l-4.9,2.85-30.91-14.39,5.43-3.16q10.89-6.33,12.5-12c1.06-3.78-.94-7.16-6.06-10.12a30,30,0,0,0-16.4-4.1A37.66,37.66,0,0,0,343,195.37c-6,3.47-9.93,7.86-11.8,13.18s-2.79,14-2.72,26q.14,24.65-5,36.67t-20.64,21a88.59,88.59,0,0,1-30.09,10.66,101.65,101.65,0,0,1-33.16.09,88.38,88.38,0,0,1-30.36-10.6c-9.14-5.27-15.25-11.12-18.4-17.55a20.79,20.79,0,0,1,.06-19.21c3.11-6.37,9.24-12.2,18.3-17.46l6.82-4L247,248.64l-7.06,4.11c-6.89,4-10.7,8.12-11.39,12.33s1.85,8,7.7,11.39a37,37,0,0,0,18.45,5,35.38,35.38,0,0,0,18.4-4.84c6.16-3.58,10.29-8,12.33-13.35s2.79-13.94,2.19-25.85c-.81-16,.59-28.11,4.29-36.28s10.79-15.31,21.32-21.42a94.21,94.21,0,0,1,45.9-13.05A84.48,84.48,0,0,1,404.07,178Z" transform="translate(26.32 12.05)"/></g></svg>